<mxfile host="app.diagrams.net" modified="2021-02-10T09:17:11.494Z" agent="5.0 (Windows NT 10.0; Win64; x64) AppleWebKit/537.36 (KHTML, like Gecko) Chrome/88.0.4324.146 Safari/537.36" etag="2pIdMpiRErC1cp-fOhjf" version="14.3.0" type="github">
  <diagram id="a-bHq1KkwQbsTztBTE07" name="Page-1">
    <mxGraphModel dx="924" dy="766" grid="1" gridSize="10" guides="1" tooltips="1" connect="1" arrows="1" fold="1" page="1" pageScale="1" pageWidth="827" pageHeight="1169" math="0" shadow="0">
      <root>
        <mxCell id="0" />
        <mxCell id="1" parent="0" />
        <mxCell id="Kt-GRtBH2peXFJSDINZT-5" value="weatherdata" style="rounded=1;whiteSpace=wrap;html=1;" parent="1" vertex="1">
          <mxGeometry x="26" y="440" width="170" height="80" as="geometry" />
        </mxCell>
        <mxCell id="Kt-GRtBH2peXFJSDINZT-6" value="loadforecast&lt;br&gt;windforecast" style="rounded=1;whiteSpace=wrap;html=1;" parent="1" vertex="1">
          <mxGeometry x="51" y="60" width="159" height="100" as="geometry" />
        </mxCell>
        <mxCell id="QDE64ggSZwjZivFJymg_-15" value="" style="group" parent="1" vertex="1" connectable="0">
          <mxGeometry x="310" y="10" width="590" height="528.8844444444444" as="geometry" />
        </mxCell>
        <mxCell id="Kt-GRtBH2peXFJSDINZT-1" value="" style="rounded=1;whiteSpace=wrap;html=1;direction=south;" parent="QDE64ggSZwjZivFJymg_-15" vertex="1">
          <mxGeometry width="410" height="489.99999999999994" as="geometry" />
        </mxCell>
        <mxCell id="QDE64ggSZwjZivFJymg_-30" value="QRest" style="rounded=1;whiteSpace=wrap;html=1;" parent="QDE64ggSZwjZivFJymg_-15" vertex="1">
          <mxGeometry x="146.08" y="300" width="153.92" height="60" as="geometry" />
        </mxCell>
        <mxCell id="QDE64ggSZwjZivFJymg_-37" value="Logs" style="rounded=1;whiteSpace=wrap;html=1;" parent="QDE64ggSZwjZivFJymg_-15" vertex="1">
          <mxGeometry x="146.08" y="30" width="120" height="60" as="geometry" />
        </mxCell>
        <mxCell id="Su9MEF37IW_ohnqQTnP7-1" value="Forecasting Engine" style="rounded=1;whiteSpace=wrap;html=1;" vertex="1" parent="QDE64ggSZwjZivFJymg_-15">
          <mxGeometry x="145" y="180" width="120" height="60" as="geometry" />
        </mxCell>
        <mxCell id="QDE64ggSZwjZivFJymg_-17" value="" style="endArrow=classic;html=1;exitX=0.5;exitY=0;exitDx=0;exitDy=0;" parent="QDE64ggSZwjZivFJymg_-15" target="QDE64ggSZwjZivFJymg_-37" edge="1" source="Su9MEF37IW_ohnqQTnP7-1">
          <mxGeometry width="50" height="50" relative="1" as="geometry">
            <mxPoint x="200" y="119" as="sourcePoint" />
            <mxPoint x="220" y="250" as="targetPoint" />
          </mxGeometry>
        </mxCell>
        <mxCell id="Su9MEF37IW_ohnqQTnP7-2" value="" style="endArrow=classic;html=1;exitX=0.5;exitY=1;exitDx=0;exitDy=0;" edge="1" parent="QDE64ggSZwjZivFJymg_-15" source="Su9MEF37IW_ohnqQTnP7-1" target="QDE64ggSZwjZivFJymg_-30">
          <mxGeometry width="50" height="50" relative="1" as="geometry">
            <mxPoint x="190" y="280" as="sourcePoint" />
            <mxPoint x="240" y="230" as="targetPoint" />
          </mxGeometry>
        </mxCell>
        <mxCell id="Kt-GRtBH2peXFJSDINZT-9" value="cforecast" style="rounded=1;whiteSpace=wrap;html=1;" parent="QDE64ggSZwjZivFJymg_-15" vertex="1">
          <mxGeometry x="440" y="150" width="150" height="90" as="geometry" />
        </mxCell>
        <mxCell id="Kt-GRtBH2peXFJSDINZT-8" value="marketpricefcast" style="rounded=1;whiteSpace=wrap;html=1;" parent="QDE64ggSZwjZivFJymg_-15" vertex="1">
          <mxGeometry x="430" y="30" width="150" height="80" as="geometry" />
        </mxCell>
        <mxCell id="Su9MEF37IW_ohnqQTnP7-3" value="" style="endArrow=classic;html=1;exitX=1;exitY=0.25;exitDx=0;exitDy=0;" edge="1" parent="QDE64ggSZwjZivFJymg_-15" source="Su9MEF37IW_ohnqQTnP7-1" target="Kt-GRtBH2peXFJSDINZT-8">
          <mxGeometry width="50" height="50" relative="1" as="geometry">
            <mxPoint x="190" y="280" as="sourcePoint" />
            <mxPoint x="240" y="230" as="targetPoint" />
          </mxGeometry>
        </mxCell>
        <mxCell id="Su9MEF37IW_ohnqQTnP7-4" value="" style="endArrow=classic;html=1;entryX=0;entryY=0.75;entryDx=0;entryDy=0;exitX=1;exitY=0.75;exitDx=0;exitDy=0;" edge="1" parent="QDE64ggSZwjZivFJymg_-15" source="Su9MEF37IW_ohnqQTnP7-1" target="Kt-GRtBH2peXFJSDINZT-9">
          <mxGeometry width="50" height="50" relative="1" as="geometry">
            <mxPoint x="190" y="280" as="sourcePoint" />
            <mxPoint x="240" y="230" as="targetPoint" />
          </mxGeometry>
        </mxCell>
        <mxCell id="QDE64ggSZwjZivFJymg_-6" value="" style="endArrow=classic;html=1;exitX=1;exitY=0.5;exitDx=0;exitDy=0;" parent="1" source="Kt-GRtBH2peXFJSDINZT-5" target="Su9MEF37IW_ohnqQTnP7-1" edge="1">
          <mxGeometry width="50" height="50" relative="1" as="geometry">
            <mxPoint x="180" y="408" as="sourcePoint" />
            <mxPoint x="115" y="450" as="targetPoint" />
          </mxGeometry>
        </mxCell>
        <mxCell id="QDE64ggSZwjZivFJymg_-28" value="" style="endArrow=classic;html=1;exitX=1;exitY=0.75;exitDx=0;exitDy=0;entryX=0;entryY=0.25;entryDx=0;entryDy=0;" parent="1" source="Kt-GRtBH2peXFJSDINZT-6" target="Su9MEF37IW_ohnqQTnP7-1" edge="1">
          <mxGeometry width="50" height="50" relative="1" as="geometry">
            <mxPoint x="350" y="270" as="sourcePoint" />
            <mxPoint x="408.4752631578947" y="135.2850409916407" as="targetPoint" />
          </mxGeometry>
        </mxCell>
      </root>
    </mxGraphModel>
  </diagram>
</mxfile>
